<svg width="29" height="29" viewBox="0 0 29 29" fill="none" xmlns="http://www.w3.org/2000/svg">
<path d="M14.6143 28.4583C12.7067 28.4583 10.9037 28.0919 9.20548 27.3591C7.50722 26.6263 6.02415 25.6259 4.75627 24.3581C3.48838 23.0902 2.48804 21.6071 1.75522 19.9088C1.02241 18.2106 0.656006 16.4076 0.656006 14.5C0.656006 12.5691 1.02241 10.7603 1.75522 9.07369C2.48804 7.38706 3.48838 5.9098 4.75627 4.64192C6.02415 3.37403 7.50722 2.37369 9.20548 1.64088C10.9037 0.908063 12.7067 0.541656 14.6143 0.541656C16.5452 0.541656 18.354 0.908063 20.0406 1.64088C21.7273 2.37369 23.2045 3.37403 24.4724 4.64192C25.7403 5.9098 26.7406 7.38706 27.4735 9.07369C28.2063 10.7603 28.5727 12.5691 28.5727 14.5C28.5727 16.4076 28.2063 18.2106 27.4735 19.9088C26.7406 21.6071 25.7403 23.0902 24.4724 24.3581C23.2045 25.6259 21.7273 26.6263 20.0406 27.3591C18.354 28.0919 16.5452 28.4583 14.6143 28.4583ZM14.6143 25.5969C15.2192 24.7594 15.7426 23.887 16.1847 22.9797C16.6267 22.0724 16.9873 21.1069 17.2664 20.0833H11.9623C12.2414 21.1069 12.602 22.0724 13.044 22.9797C13.486 23.887 14.0095 24.7594 14.6143 25.5969ZM10.9852 25.0385C10.5664 24.2708 10.2 23.474 9.88595 22.6482C9.57189 21.8223 9.31017 20.9674 9.1008 20.0833H4.98309C5.65774 21.2465 6.50106 22.2585 7.51304 23.1193C8.52502 23.98 9.68239 24.6198 10.9852 25.0385ZM18.2435 25.0385C19.5463 24.6198 20.7037 23.98 21.7156 23.1193C22.7276 22.2585 23.5709 21.2465 24.2456 20.0833H20.1279C19.9185 20.9674 19.6568 21.8223 19.3427 22.6482C19.0287 23.474 18.6623 24.2708 18.2435 25.0385ZM3.79663 17.2917H8.54246C8.47267 16.8264 8.42033 16.3669 8.38543 15.9133C8.35054 15.4596 8.33309 14.9885 8.33309 14.5C8.33309 14.0114 8.35054 13.5404 8.38543 13.0867C8.42033 12.6331 8.47267 12.1736 8.54246 11.7083H3.79663C3.68031 12.1736 3.59307 12.6331 3.53491 13.0867C3.47675 13.5404 3.44767 14.0114 3.44767 14.5C3.44767 14.9885 3.47675 15.4596 3.53491 15.9133C3.59307 16.3669 3.68031 16.8264 3.79663 17.2917ZM11.3341 17.2917H17.8945C17.9643 16.8264 18.0167 16.3669 18.0516 15.9133C18.0865 15.4596 18.1039 14.9885 18.1039 14.5C18.1039 14.0114 18.0865 13.5404 18.0516 13.0867C18.0167 12.6331 17.9643 12.1736 17.8945 11.7083H11.3341C11.2643 12.1736 11.212 12.6331 11.1771 13.0867C11.1422 13.5404 11.1248 14.0114 11.1248 14.5C11.1248 14.9885 11.1422 15.4596 11.1771 15.9133C11.212 16.3669 11.2643 16.8264 11.3341 17.2917ZM20.6862 17.2917H25.432C25.5484 16.8264 25.6356 16.3669 25.6938 15.9133C25.7519 15.4596 25.781 14.9885 25.781 14.5C25.781 14.0114 25.7519 13.5404 25.6938 13.0867C25.6356 12.6331 25.5484 12.1736 25.432 11.7083H20.6862C20.756 12.1736 20.8083 12.6331 20.8432 13.0867C20.8781 13.5404 20.8956 14.0114 20.8956 14.5C20.8956 14.9885 20.8781 15.4596 20.8432 15.9133C20.8083 16.3669 20.756 16.8264 20.6862 17.2917ZM20.1279 8.91666H24.2456C23.5709 7.75346 22.7276 6.74148 21.7156 5.88072C20.7037 5.01995 19.5463 4.3802 18.2435 3.96145C18.6623 4.72916 19.0287 5.52594 19.3427 6.35181C19.6568 7.17768 19.9185 8.03263 20.1279 8.91666ZM11.9623 8.91666H17.2664C16.9873 7.89304 16.6267 6.92759 16.1847 6.0203C15.7426 5.11301 15.2192 4.24061 14.6143 3.40311C14.0095 4.24061 13.486 5.11301 13.044 6.0203C12.602 6.92759 12.2414 7.89304 11.9623 8.91666ZM4.98309 8.91666H9.1008C9.31017 8.03263 9.57189 7.17768 9.88595 6.35181C10.2 5.52594 10.5664 4.72916 10.9852 3.96145C9.68239 4.3802 8.52502 5.01995 7.51304 5.88072C6.50106 6.74148 5.65774 7.75346 4.98309 8.91666Z" fill="#455369"/>
</svg>
