<svg width="60" height="57" viewBox="0 0 60 57" fill="none" xmlns="http://www.w3.org/2000/svg">
<path d="M51.4871 0.361433C50.6666 0.596952 49.8917 1.26552 49.527 2.05565C49.375 2.38994 49.3219 2.64825 49.2991 3.15727L49.2687 3.81825L48.0759 4.49441C47.4225 4.85909 45.7739 5.78597 44.3987 6.55331L41.9144 7.93603L41.6029 7.65493C40.1214 6.31779 37.6978 6.80402 36.7938 8.6122C36.3379 9.51629 36.3531 10.4508 36.8317 11.408C37.0749 11.8943 37.713 12.5401 38.1841 12.7756C39.2097 13.2922 40.6304 13.1326 41.5421 12.4033L41.8156 12.1906L45.546 14.2495L49.2839 16.3084V16.6578C49.2839 17.448 49.6637 18.2609 50.3095 18.8459C51.2744 19.7272 52.528 19.9171 53.7132 19.3701C55.0047 18.7699 55.7189 17.22 55.3314 15.8525C55.0731 14.9712 54.3437 14.1583 53.5308 13.8696L53.1585 13.7328V10.0329C53.1585 6.95597 53.1737 6.32539 53.2649 6.32539C53.4093 6.32539 54.0854 5.94552 54.3589 5.71C54.7616 5.36811 55.1111 4.8287 55.2858 4.30448C55.5213 3.59792 55.4757 2.68624 55.1719 2.03286C54.8831 1.42507 54.283 0.832472 53.6524 0.536173C53.037 0.247473 52.1481 0.179096 51.4871 0.361433ZM50.0816 5.48967C50.4083 5.83155 50.8413 6.10506 51.282 6.25701L51.677 6.39376V10.0557V13.7176L51.3732 13.8088C50.9021 13.9456 50.583 14.1355 50.188 14.5078L49.8233 14.8497L46.1765 12.8515C42.6513 10.9142 42.5298 10.8382 42.583 10.6559C42.6134 10.5495 42.6362 10.1925 42.6286 9.85817V9.25038L46.1993 7.25986C48.1671 6.16584 49.8005 5.26935 49.8233 5.26935C49.8461 5.26175 49.96 5.36052 50.0816 5.48967Z" fill="#455369"/>
<path d="M3.62338 14.052C2.04313 14.3179 0.652804 15.6018 0.242544 17.1669C0.0754018 17.8203 0.0754018 46.8423 0.242544 47.5641C0.569232 48.9468 1.70124 50.1548 3.12955 50.6258C3.38027 50.7094 5.93299 50.7398 16.7897 50.7702C24.1287 50.793 30.1307 50.793 30.1231 50.7702C30.1079 50.7474 30.0167 50.5346 29.918 50.3067L29.7432 49.8813L29.2114 49.7977C28.4821 49.6913 28.0414 49.4102 27.7679 48.8784L27.5552 48.4758V46.6752C27.5552 44.6695 27.6008 44.4719 28.0946 44.0541C28.4213 43.773 28.6112 43.7046 29.3254 43.5982L29.9104 43.5147L30.1307 43.0588L30.3434 42.603L29.9332 42.0028C29.2494 41.0303 29.1582 40.6428 29.4773 40.073C29.6748 39.7008 31.9693 37.5127 32.3187 37.3532C32.6074 37.224 33.0861 37.2164 33.3824 37.3304C33.4963 37.3684 33.8534 37.6495 34.1801 37.9382L34.7727 38.4776L35.3957 38.2345C35.7452 38.0977 36.0339 37.9838 36.0491 37.9686C36.0643 37.9534 36.1782 37.5127 36.2998 36.9885C36.4213 36.4567 36.5657 35.9325 36.6265 35.8185C36.9304 35.2411 37.5989 34.8536 38.2219 34.9068L38.5714 34.9296V26.3066C38.5714 18.8307 38.5562 17.6151 38.4574 17.2277C38.1004 15.8298 37.1507 14.7661 35.7756 14.2343L35.2665 14.0368L19.5399 14.0292C10.8941 14.0216 3.72975 14.0292 3.62338 14.052ZM35.5932 15.9285C36.0718 16.1944 36.4365 16.5819 36.7252 17.1289L36.938 17.5316L36.9607 19.902L36.9835 22.2799H19.35H1.71644L1.73923 19.9399L1.76202 17.6076L2.01274 17.0985C2.30904 16.4983 2.78007 16.0425 3.34988 15.8298C3.72975 15.6778 3.94247 15.6778 19.4639 15.693L35.1906 15.7082L35.5932 15.9285ZM8.8124 27.6057C9.00234 27.6969 15.5285 34.2838 15.6804 34.5421C15.7336 34.6257 15.7716 34.8384 15.7716 35.0056C15.7716 35.1727 15.7336 35.3854 15.6804 35.4766C15.5741 35.6666 9.32143 41.9876 8.98714 42.2383C8.71364 42.451 8.18942 42.4738 7.87792 42.2915C7.38409 41.9952 7.27773 41.3418 7.64241 40.848C7.75637 40.6884 9.1163 39.3057 10.651 37.7862L13.4392 35.0208L12.0033 33.5697C8.38695 29.9077 7.61202 29.11 7.52085 28.9505C7.09539 28.1831 8.00708 27.241 8.8124 27.6057ZM23.7945 39.7084C24.1136 39.8451 24.2883 40.1718 24.2883 40.6352C24.2883 40.9315 24.2503 41.0227 24.03 41.243L23.7717 41.5013H20.4212C16.8125 41.5013 16.7821 41.5013 16.5086 41.1063C16.3718 40.9088 16.349 40.2782 16.4706 40.0502C16.5086 39.9667 16.6605 39.8299 16.7897 39.7539C17.0176 39.6096 17.1999 39.602 20.2845 39.602C22.9208 39.602 23.5817 39.6248 23.7945 39.7084Z" fill="#455369"/>
<path d="M4.60359 17.9722C4.45924 18.0634 4.26171 18.2989 4.16294 18.504C3.90463 19.0282 3.9806 19.4689 4.41365 19.8943C4.77833 20.2666 5.1506 20.373 5.59885 20.2362C6.19904 20.0615 6.51053 19.6284 6.51053 18.9903C6.51053 18.071 5.37093 17.4632 4.60359 17.9722Z" fill="#455369"/>
<path d="M9.04806 17.9418C8.20475 18.4584 8.22754 19.674 9.09364 20.1299C9.27598 20.2286 9.5267 20.3046 9.66345 20.3046C9.8002 20.3046 10.0509 20.2286 10.2333 20.1299C10.6207 19.9247 10.917 19.4461 10.917 19.0206C10.917 18.6636 10.6435 18.1925 10.3168 17.9722C9.98254 17.7443 9.38994 17.7367 9.04806 17.9418Z" fill="#455369"/>
<path d="M13.4247 17.9647C13.0296 18.2382 12.8701 18.5041 12.8397 18.9524C12.7637 19.9932 13.8577 20.6314 14.7542 20.0768C15.3316 19.7197 15.4836 18.8384 15.0657 18.2914C14.6859 17.7976 13.9033 17.638 13.4247 17.9647Z" fill="#455369"/>
<path d="M46.0929 21.1859C44.9685 21.3151 44.9533 21.3227 44.9533 22.3863V23.1536L44.5962 23.298C44.3987 23.3816 44.0264 23.5943 43.7529 23.769L43.2743 24.0957L42.6285 23.6703C41.8232 23.1308 41.7852 23.146 40.9799 24.0653C40.3569 24.7795 40.167 25.0986 40.2201 25.3189C40.2353 25.3873 40.5088 25.676 40.8127 25.9495L41.375 26.4585L41.2306 26.7852C41.1546 26.9599 41.0483 27.3246 41.0027 27.5981C40.9495 27.8716 40.8963 28.1299 40.8887 28.1755C40.8735 28.2211 40.6152 28.3199 40.3037 28.3958C39.5972 28.563 39.4072 28.6845 39.4072 28.9504C39.4072 29.3835 39.6579 31.0245 39.7491 31.1385C39.8175 31.2373 39.9694 31.2601 40.5316 31.2525L41.223 31.2373L41.4281 31.6399C41.5345 31.8602 41.7472 32.2097 41.8916 32.4149L42.1499 32.7795L41.7548 33.4253C41.4205 33.9799 41.3674 34.1015 41.4281 34.2762C41.5193 34.5269 43.0996 35.7273 43.3503 35.7273C43.4642 35.7273 43.7074 35.5526 44.072 35.1955L44.6266 34.6637L45.0521 34.8536C45.2876 34.9676 45.7131 35.1043 46.0018 35.1727L46.5336 35.3019L46.7387 36.0388C46.8983 36.6238 46.9818 36.7986 47.1034 36.8365C47.2629 36.8897 48.3646 36.8213 49.0103 36.715C49.4662 36.6466 49.5877 36.5023 49.5877 36.0236C49.5877 35.8337 49.6105 35.5146 49.6333 35.3247C49.6789 34.9904 49.7017 34.9676 50.1499 34.7473C50.4007 34.6181 50.7881 34.3826 51.0084 34.2154L51.4035 33.9115L51.9809 34.3294C52.5963 34.77 52.7558 34.8156 52.9914 34.6029C53.2649 34.3598 54.2145 33.1746 54.2829 32.9847C54.3893 32.7188 54.2753 32.544 53.6827 32.0882C53.394 31.8602 53.1585 31.6627 53.1585 31.6399C53.1585 31.6247 53.2421 31.3816 53.3408 31.1005C53.4396 30.827 53.546 30.4167 53.5764 30.204C53.6068 29.9837 53.6599 29.7862 53.6979 29.7634C53.7283 29.7406 54.0778 29.6494 54.4653 29.5658C54.8527 29.4823 55.2174 29.3683 55.2782 29.3075C55.3693 29.2164 55.3693 29.0416 55.2934 28.1527C55.1642 26.7396 55.1794 26.7624 54.1842 26.7624H53.3864L53.1205 26.223C52.9686 25.9267 52.7482 25.5468 52.6267 25.3797L52.4064 25.0758L52.771 24.5743C53.2421 23.9134 53.3256 23.7462 53.2725 23.5715C53.2497 23.4879 52.847 23.146 52.3836 22.8118C51.2971 22.0292 51.244 22.0216 50.5526 22.7206L50.036 23.2372L49.5042 23.0625C49.2079 22.9637 48.752 22.8573 48.4861 22.8345L47.9999 22.789L47.9163 22.3635C47.6884 21.2467 47.5896 21.0568 47.2022 21.0719C47.073 21.0795 46.5716 21.1251 46.0929 21.1859ZM48.2582 25.5012C49.4586 25.8203 50.4538 26.7548 50.8109 27.9096C51.0084 28.5478 51.0084 29.5051 50.7957 30.1204C49.9144 32.7339 46.5032 33.4861 44.6342 31.488C43.9505 30.7586 43.6618 30.0141 43.6618 28.996C43.6618 27.3398 44.619 26.0634 46.2449 25.5392C46.7539 25.3721 47.7264 25.3569 48.2582 25.5012Z" fill="#455369"/>
<path d="M52.2241 36.4035C51.4263 36.5858 51.3959 36.6238 51.4795 37.3228C51.5251 37.6343 51.5479 37.8926 51.5403 37.9002C51.5327 37.9078 51.2896 38.0901 51.0009 38.3104L50.4691 38.7055L50.074 38.5155C49.8613 38.4092 49.6182 38.3408 49.5346 38.356C49.3826 38.4016 48.6001 39.5944 48.6001 39.7919C48.6001 39.8451 48.8052 40.0502 49.056 40.2478C49.451 40.5517 49.4966 40.6124 49.4434 40.7644C49.4054 40.8631 49.3523 41.1974 49.3219 41.5089L49.2687 42.0863L48.8584 42.2611C48.6305 42.3522 48.433 42.451 48.4178 42.4814C48.357 42.5726 48.6761 43.8869 48.8052 44.0768C48.9116 44.244 48.9572 44.2516 49.4662 44.2288L50.0056 44.1984L50.4463 44.6618L50.8869 45.1329L50.6894 45.5279C50.3931 46.1053 50.4387 46.1965 51.1452 46.5688C51.4795 46.7511 51.8366 46.8879 51.943 46.8727C52.0645 46.8651 52.2241 46.7283 52.414 46.4776C52.5735 46.2649 52.7331 46.0977 52.7787 46.1053C52.8167 46.1129 53.1054 46.1205 53.4093 46.1205L53.9639 46.1357L54.1462 46.6372C54.2374 46.9107 54.3665 47.1538 54.4197 47.1766C54.5109 47.207 55.9316 46.9259 56.0683 46.8423C56.1063 46.8195 56.1139 46.5536 56.0835 46.2117L56.0304 45.6191L56.2583 45.4976C56.3798 45.4368 56.5926 45.2924 56.7217 45.1785L56.9648 44.9809L57.3371 45.1405C58.0057 45.4292 58.0589 45.4064 58.6211 44.5251C59.0313 43.8793 59.0085 43.7426 58.4387 43.4387C58.2108 43.3095 58.0361 43.1728 58.0513 43.1272C58.0968 43.0056 58.2412 42.1927 58.264 41.9268C58.2868 41.7368 58.34 41.6913 58.7198 41.5469C59.3732 41.3038 59.3732 41.3114 59.1757 40.4985C59.0769 40.111 58.9705 39.7463 58.9402 39.6855C58.887 39.602 58.7654 39.5944 58.302 39.6552L57.7322 39.7235L57.5422 39.412C57.4359 39.2449 57.2231 38.9942 57.0788 38.8498L56.8129 38.5915L57.0408 38.1509C57.1776 37.8926 57.2535 37.657 57.2307 37.5735C57.1776 37.4139 55.9848 36.715 55.7569 36.715C55.6657 36.715 55.4606 36.8745 55.2706 37.0872L54.9439 37.4595L54.2906 37.4215L53.6372 37.3835L53.4776 36.8213C53.3105 36.2667 53.3029 36.2591 53.0598 36.2667C52.9306 36.2667 52.5508 36.3351 52.2241 36.4035ZM54.8756 39.602C55.4302 39.8679 55.8404 40.2933 56.0987 40.8707C56.2659 41.243 56.2887 41.3646 56.2583 41.942C56.2203 42.6789 56.0759 43.0512 55.6201 43.5526C54.8376 44.4111 53.3029 44.5555 52.338 43.8565C51.6315 43.3475 51.1984 42.3978 51.2896 41.5773C51.5023 39.8071 53.2725 38.827 54.8756 39.602Z" fill="#455369"/>
<path d="M38.0095 36.6542C37.9107 36.8061 37.7663 37.2924 37.4321 38.5915C37.3561 38.8954 37.3409 38.9106 36.8015 39.0702C36.1937 39.2525 35.5099 39.564 35.0237 39.8603L34.7122 40.0578L34.0588 39.4956C33.2459 38.7891 33.1699 38.7435 32.904 38.8422C32.7065 38.9182 31.7948 39.7007 31.111 40.3769C30.6932 40.7872 30.7236 40.9315 31.3921 41.8584L31.9543 42.6409L31.6276 43.2715C31.4453 43.621 31.2326 44.0996 31.1642 44.3276L31.0274 44.753L30.564 44.8062C28.8318 44.9809 28.961 44.8442 28.9686 46.5384C28.9762 47.2601 28.9989 47.9515 29.0293 48.0655C29.0977 48.3314 29.3864 48.4529 30.2297 48.5745C30.5944 48.6201 30.9135 48.6885 30.9515 48.7112C30.9895 48.734 31.0958 49.0303 31.187 49.3646C31.2858 49.6913 31.4757 50.2155 31.62 50.5194L31.8708 51.0664L31.3465 51.7654C30.5868 52.7834 30.5716 52.7455 31.9391 54.1282C32.98 55.1842 32.98 55.1842 33.9373 54.3333C34.3171 53.999 34.659 53.7331 34.6818 53.7483C35.8138 54.3257 36.2393 54.5157 36.4976 54.584C36.8546 54.6676 36.8091 54.5536 37.0142 55.8756C37.0826 56.2858 37.1509 56.6733 37.1813 56.7417C37.2573 56.9468 37.5612 57 38.7844 57C39.7265 57 40.0152 56.9772 40.1443 56.886C40.3039 56.7721 40.3646 56.5594 40.6457 55.2222L40.7369 54.7816L41.3447 54.5764C41.679 54.4625 42.1576 54.2649 42.4159 54.1282L42.8794 53.8927L43.1757 54.0902C43.3352 54.2042 43.7075 54.4929 43.9962 54.736C44.7483 55.3666 44.7635 55.359 45.85 54.3333C46.7616 53.4672 47.0048 53.1785 47.0048 52.9658C47.0048 52.8974 46.7313 52.4796 46.3894 52.0237L45.774 51.2108L46.0779 50.5498C46.245 50.1927 46.4274 49.7597 46.4805 49.5925C46.5337 49.4254 46.6021 49.2659 46.6249 49.2355C46.6477 49.2127 47.0883 49.1519 47.6126 49.0987C48.2279 49.0455 48.6078 48.9696 48.6838 48.9012C48.8205 48.7796 48.8889 48.0351 48.9193 46.5688C48.9269 45.9838 48.9041 45.8014 48.8129 45.7103C48.7066 45.6039 48.0988 45.452 47.0731 45.2696C46.7996 45.224 46.792 45.2088 46.6629 44.6998C46.5945 44.4187 46.4198 43.9173 46.2754 43.583L46.0171 42.9904L46.6173 42.3826C47.2783 41.6913 47.415 41.4861 47.3542 41.2506C47.3315 41.1594 46.8908 40.6428 46.3742 40.1034C45.2574 38.941 45.3561 38.9562 44.2089 39.7007C43.5176 40.149 43.4492 40.1794 43.3124 40.073C43.0845 39.8983 41.6638 39.2221 41.5194 39.2221C41.4511 39.2221 41.3675 39.1841 41.3447 39.1461C41.3143 39.1005 41.2611 38.5991 41.2156 38.0217C41.1548 37.1936 41.1092 36.9505 41.0028 36.8365C40.8889 36.7226 40.6533 36.677 39.81 36.5934C38.2982 36.4491 38.1386 36.4491 38.0095 36.6542ZM40.4254 42.3978C41.0712 42.6333 41.6334 42.9904 42.1424 43.4994C43.6163 44.9505 43.9658 47.1234 43.0313 49.0151C42.735 49.6229 41.9449 50.4814 41.3523 50.8385C40.3191 51.4615 38.9743 51.6894 37.8727 51.4235C36.4824 51.0968 35.282 50.1168 34.6894 48.8252C33.489 46.2041 34.8945 43.1651 37.698 42.3218C38.3513 42.1319 39.7948 42.1699 40.4254 42.3978Z" fill="#455369"/>
</svg>
